<svg width="960" height="300" viewBox="0 0 960 300" xmlns="http://www.w3.org/2000/svg">
  <defs>
    <linearGradient id="stackSection" x1="0%" y1="0%" x2="100%" y2="0%">
      <stop offset="0%" stop-color="#C6A0F6"/>
      <stop offset="50%" stop-color="#8BD5CA"/>
      <stop offset="100%" stop-color="#F5A97F"/>
    </linearGradient>
  </defs>

  <rect width="960" height="300" fill="#24273A" rx="12"/>

  <!-- ===== BACKEND HEADER ===== -->
  <rect x="20" y="20" width="4" height="20" fill="#8BD5CA" rx="2"/>
  <text x="32" y="35" font-family="'Courier New', monospace" font-size="16" font-weight="bold" fill="#8BD5CA">backend</text>

  <!-- BACKEND ROW 1 (y=50, x-start=20) -->
  <!-- Python -->
  <rect x="20" y="50" width="82" height="26" rx="6" fill="#363A4F" stroke="#C6A0F6" stroke-width="1" stroke-opacity="0.3"/>
  <circle cx="34" cy="63" r="4" fill="#C6A0F6"/>
  <text x="44" y="68" font-family="'Segoe UI', sans-serif" font-size="12" fill="#CAD3F5">Python</text>

  <!-- Django -->
  <rect x="110" y="50" width="80" height="26" rx="6" fill="#363A4F" stroke="#A6DA95" stroke-width="1" stroke-opacity="0.3"/>
  <circle cx="124" cy="63" r="4" fill="#A6DA95"/>
  <text x="134" y="68" font-family="'Segoe UI', sans-serif" font-size="12" fill="#CAD3F5">Django</text>

  <!-- DRF -->
  <rect x="198" y="50" width="64" height="26" rx="6" fill="#363A4F" stroke="#ED8796" stroke-width="1" stroke-opacity="0.3"/>
  <circle cx="212" cy="63" r="4" fill="#ED8796"/>
  <text x="222" y="68" font-family="'Segoe UI', sans-serif" font-size="12" fill="#CAD3F5">DRF</text>

  <!-- FastAPI -->
  <rect x="270" y="50" width="82" height="26" rx="6" fill="#363A4F" stroke="#8BD5CA" stroke-width="1" stroke-opacity="0.3"/>
  <circle cx="284" cy="63" r="4" fill="#8BD5CA"/>
  <text x="294" y="68" font-family="'Segoe UI', sans-serif" font-size="12" fill="#CAD3F5">FastAPI</text>

  <!-- CrewAI -->
  <rect x="360" y="50" width="80" height="26" rx="6" fill="#363A4F" stroke="#F5A97F" stroke-width="1" stroke-opacity="0.3"/>
  <circle cx="374" cy="63" r="4" fill="#F5A97F"/>
  <text x="384" y="68" font-family="'Segoe UI', sans-serif" font-size="12" fill="#CAD3F5">CrewAI</text>

  <!-- NestJS -->
  <rect x="448" y="50" width="78" height="26" rx="6" fill="#363A4F" stroke="#EED49F" stroke-width="1" stroke-opacity="0.3"/>
  <circle cx="462" cy="63" r="4" fill="#EED49F"/>
  <text x="472" y="68" font-family="'Segoe UI', sans-serif" font-size="12" fill="#CAD3F5">NestJS</text>

  <!-- BACKEND ROW 2 (y=84, x-start=20) -->
  <!-- PostgreSQL -->
  <rect x="20" y="84" width="100" height="26" rx="6" fill="#363A4F" stroke="#8AADF4" stroke-width="1" stroke-opacity="0.3"/>
  <circle cx="34" cy="97" r="4" fill="#8AADF4"/>
  <text x="44" y="102" font-family="'Segoe UI', sans-serif" font-size="12" fill="#CAD3F5">PostgreSQL</text>

  <!-- MongoDB -->
  <rect x="128" y="84" width="88" height="26" rx="6" fill="#363A4F" stroke="#A6DA95" stroke-width="1" stroke-opacity="0.3"/>
  <circle cx="142" cy="97" r="4" fill="#A6DA95"/>
  <text x="152" y="102" font-family="'Segoe UI', sans-serif" font-size="12" fill="#CAD3F5">MongoDB</text>

  <!-- Redis -->
  <rect x="224" y="84" width="72" height="26" rx="6" fill="#363A4F" stroke="#ED8796" stroke-width="1" stroke-opacity="0.3"/>
  <circle cx="238" cy="97" r="4" fill="#ED8796"/>
  <text x="248" y="102" font-family="'Segoe UI', sans-serif" font-size="12" fill="#CAD3F5">Redis</text>

  <!-- SQLAlchemy -->
  <rect x="304" y="84" width="100" height="26" rx="6" fill="#363A4F" stroke="#B7BDF8" stroke-width="1" stroke-opacity="0.3"/>
  <circle cx="318" cy="97" r="4" fill="#B7BDF8"/>
  <text x="328" y="102" font-family="'Segoe UI', sans-serif" font-size="12" fill="#CAD3F5">SQLAlchemy</text>

  <!-- Pydantic -->
  <rect x="412" y="84" width="82" height="26" rx="6" fill="#363A4F" stroke="#F5A97F" stroke-width="1" stroke-opacity="0.3"/>
  <circle cx="426" cy="97" r="4" fill="#F5A97F"/>
  <text x="436" y="102" font-family="'Segoe UI', sans-serif" font-size="12" fill="#CAD3F5">Pydantic</text>

  <!-- ===== FRONTEND HEADER ===== -->
  <rect x="20" y="130" width="4" height="20" fill="#F5A97F" rx="2"/>
  <text x="32" y="145" font-family="'Courier New', monospace" font-size="16" font-weight="bold" fill="#F5A97F">frontend</text>

  <!-- FRONTEND ROW (y=160, x-start=20) -->
  <!-- TypeScript -->
  <rect x="20" y="160" width="96" height="26" rx="6" fill="#363A4F" stroke="#8AADF4" stroke-width="1" stroke-opacity="0.3"/>
  <circle cx="34" cy="173" r="4" fill="#8AADF4"/>
  <text x="44" y="178" font-family="'Segoe UI', sans-serif" font-size="12" fill="#CAD3F5">TypeScript</text>

  <!-- Next.js -->
  <rect x="124" y="160" width="80" height="26" rx="6" fill="#363A4F" stroke="#CAD3F5" stroke-width="1" stroke-opacity="0.3"/>
  <circle cx="138" cy="173" r="4" fill="#CAD3F5"/>
  <text x="148" y="178" font-family="'Segoe UI', sans-serif" font-size="12" fill="#CAD3F5">Next.js</text>

  <!-- React -->
  <rect x="212" y="160" width="72" height="26" rx="6" fill="#363A4F" stroke="#8BD5CA" stroke-width="1" stroke-opacity="0.3"/>
  <circle cx="226" cy="173" r="4" fill="#8BD5CA"/>
  <text x="236" y="178" font-family="'Segoe UI', sans-serif" font-size="12" fill="#CAD3F5">React</text>

  <!-- Angular -->
  <rect x="292" y="160" width="80" height="26" rx="6" fill="#363A4F" stroke="#ED8796" stroke-width="1" stroke-opacity="0.3"/>
  <circle cx="306" cy="173" r="4" fill="#ED8796"/>
  <text x="316" y="178" font-family="'Segoe UI', sans-serif" font-size="12" fill="#CAD3F5">Angular</text>

  <!-- Vite -->
  <rect x="380" y="160" width="62" height="26" rx="6" fill="#363A4F" stroke="#EED49F" stroke-width="1" stroke-opacity="0.3"/>
  <circle cx="394" cy="173" r="4" fill="#EED49F"/>
  <text x="404" y="178" font-family="'Segoe UI', sans-serif" font-size="12" fill="#CAD3F5">Vite</text>

  <!-- HTML/CSS -->
  <rect x="450" y="160" width="88" height="26" rx="6" fill="#363A4F" stroke="#F5A97F" stroke-width="1" stroke-opacity="0.3"/>
  <circle cx="464" cy="173" r="4" fill="#F5A97F"/>
  <text x="474" y="178" font-family="'Segoe UI', sans-serif" font-size="12" fill="#CAD3F5">HTML/CSS</text>

  <!-- Tailwind -->
  <rect x="546" y="160" width="82" height="26" rx="6" fill="#363A4F" stroke="#8BD5CA" stroke-width="1" stroke-opacity="0.3"/>
  <circle cx="560" cy="173" r="4" fill="#8BD5CA"/>
  <text x="570" y="178" font-family="'Segoe UI', sans-serif" font-size="12" fill="#CAD3F5">Tailwind</text>

  <!-- ===== CLOUD HEADER ===== -->
  <rect x="20" y="206" width="4" height="20" fill="#C6A0F6" rx="2"/>
  <text x="32" y="221" font-family="'Courier New', monospace" font-size="16" font-weight="bold" fill="#C6A0F6">cloud &amp; infra</text>

  <!-- CLOUD ROW (y=236, x-start=20) -->
  <!-- AWS -->
  <rect x="20" y="236" width="65" height="26" rx="6" fill="#363A4F" stroke="#F5A97F" stroke-width="1" stroke-opacity="0.3"/>
  <circle cx="34" cy="249" r="4" fill="#F5A97F"/>
  <text x="44" y="254" font-family="'Segoe UI', sans-serif" font-size="12" fill="#CAD3F5">AWS</text>

  <!-- Digital Ocean -->
  <rect x="93" y="236" width="108" height="26" rx="6" fill="#363A4F" stroke="#8AADF4" stroke-width="1" stroke-opacity="0.3"/>
  <circle cx="107" cy="249" r="4" fill="#8AADF4"/>
  <text x="117" y="254" font-family="'Segoe UI', sans-serif" font-size="12" fill="#CAD3F5">DigitalOcean</text>

  <!-- Docker -->
  <rect x="209" y="236" width="78" height="26" rx="6" fill="#363A4F" stroke="#8BD5CA" stroke-width="1" stroke-opacity="0.3"/>
  <circle cx="223" cy="249" r="4" fill="#8BD5CA"/>
  <text x="233" y="254" font-family="'Segoe UI', sans-serif" font-size="12" fill="#CAD3F5">Docker</text>

  <!-- WebSockets -->
  <rect x="295" y="236" width="100" height="26" rx="6" fill="#363A4F" stroke="#EED49F" stroke-width="1" stroke-opacity="0.3"/>
  <circle cx="309" cy="249" r="4" fill="#EED49F"/>
  <text x="319" y="254" font-family="'Segoe UI', sans-serif" font-size="12" fill="#CAD3F5">WebSockets</text>

  <!-- Linux -->
  <rect x="403" y="236" width="70" height="26" rx="6" fill="#363A4F" stroke="#C6A0F6" stroke-width="1" stroke-opacity="0.3"/>
  <circle cx="417" cy="249" r="4" fill="#C6A0F6"/>
  <text x="427" y="254" font-family="'Segoe UI', sans-serif" font-size="12" fill="#CAD3F5">Linux</text>

  <!-- Git -->
  <rect x="481" y="236" width="56" height="26" rx="6" fill="#363A4F" stroke="#ED8796" stroke-width="1" stroke-opacity="0.3"/>
  <circle cx="495" cy="249" r="4" fill="#ED8796"/>
  <text x="505" y="254" font-family="'Segoe UI', sans-serif" font-size="12" fill="#CAD3F5">Git</text>

  <!-- CI/CD -->
  <rect x="545" y="236" width="72" height="26" rx="6" fill="#363A4F" stroke="#A6DA95" stroke-width="1" stroke-opacity="0.3"/>
  <circle cx="559" cy="249" r="4" fill="#A6DA95"/>
  <text x="569" y="254" font-family="'Segoe UI', sans-serif" font-size="12" fill="#CAD3F5">CI/CD</text>

  <!-- Bottom decoration -->
  <line x1="20" y1="282" x2="940" y2="282" stroke="url(#stackSection)" stroke-width="0.5" opacity="0.15"/>
</svg>
