<svg width="960" height="310" viewBox="0 0 960 310" xmlns="http://www.w3.org/2000/svg">
  <defs>
    <linearGradient id="stackSection" x1="0%" y1="0%" x2="100%" y2="0%">
      <stop offset="0%" stop-color="#C6A0F6"/>
      <stop offset="50%" stop-color="#8BD5CA"/>
      <stop offset="100%" stop-color="#F5A97F"/>
    </linearGradient>
  </defs>

  <rect width="960" height="310" fill="#24273A" rx="12"/>

  <!-- ===== BACKEND ===== -->
  <rect x="20" y="20" width="4" height="20" fill="#8BD5CA" rx="2"/>
  <text x="32" y="35" font-family="'Courier New', monospace" font-size="16" font-weight="bold" fill="#8BD5CA">backend</text>

  <rect x="20" y="50" width="82" height="26" rx="6" fill="#363A4F" stroke="#C6A0F6" stroke-width="1" stroke-opacity="0.3"/>
  <circle cx="34" cy="63" r="4" fill="#C6A0F6"/>
  <text x="44" y="68" font-family="'Segoe UI', sans-serif" font-size="12" fill="#CAD3F5">Python</text>

  <rect x="110" y="50" width="80" height="26" rx="6" fill="#363A4F" stroke="#A6DA95" stroke-width="1" stroke-opacity="0.3"/>
  <circle cx="124" cy="63" r="4" fill="#A6DA95"/>
  <text x="134" y="68" font-family="'Segoe UI', sans-serif" font-size="12" fill="#CAD3F5">Django</text>

  <rect x="198" y="50" width="64" height="26" rx="6" fill="#363A4F" stroke="#ED8796" stroke-width="1" stroke-opacity="0.3"/>
  <circle cx="212" cy="63" r="4" fill="#ED8796"/>
  <text x="222" y="68" font-family="'Segoe UI', sans-serif" font-size="12" fill="#CAD3F5">DRF</text>

  <rect x="270" y="50" width="82" height="26" rx="6" fill="#363A4F" stroke="#8BD5CA" stroke-width="1" stroke-opacity="0.3"/>
  <circle cx="284" cy="63" r="4" fill="#8BD5CA"/>
  <text x="294" y="68" font-family="'Segoe UI', sans-serif" font-size="12" fill="#CAD3F5">FastAPI</text>

  <rect x="360" y="50" width="80" height="26" rx="6" fill="#363A4F" stroke="#F5A97F" stroke-width="1" stroke-opacity="0.3"/>
  <circle cx="374" cy="63" r="4" fill="#F5A97F"/>
  <text x="384" y="68" font-family="'Segoe UI', sans-serif" font-size="12" fill="#CAD3F5">CrewAI</text>

  <rect x="448" y="50" width="96" height="26" rx="6" fill="#363A4F" stroke="#8AADF4" stroke-width="1" stroke-opacity="0.3"/>
  <circle cx="462" cy="63" r="4" fill="#8AADF4"/>
  <text x="472" y="68" font-family="'Segoe UI', sans-serif" font-size="12" fill="#CAD3F5">TypeScript</text>

  <rect x="552" y="50" width="78" height="26" rx="6" fill="#363A4F" stroke="#EED49F" stroke-width="1" stroke-opacity="0.3"/>
  <circle cx="566" cy="63" r="4" fill="#EED49F"/>
  <text x="576" y="68" font-family="'Segoe UI', sans-serif" font-size="12" fill="#CAD3F5">NestJS</text>

  <!-- ===== FRONTEND ===== -->
  <rect x="20" y="100" width="4" height="20" fill="#F5A97F" rx="2"/>
  <text x="32" y="115" font-family="'Courier New', monospace" font-size="16" font-weight="bold" fill="#F5A97F">frontend</text>

  <rect x="20" y="130" width="96" height="26" rx="6" fill="#363A4F" stroke="#8AADF4" stroke-width="1" stroke-opacity="0.3"/>
  <circle cx="34" cy="143" r="4" fill="#8AADF4"/>
  <text x="44" y="148" font-family="'Segoe UI', sans-serif" font-size="12" fill="#CAD3F5">TypeScript</text>

  <rect x="124" y="130" width="80" height="26" rx="6" fill="#363A4F" stroke="#CAD3F5" stroke-width="1" stroke-opacity="0.3"/>
  <circle cx="138" cy="143" r="4" fill="#CAD3F5"/>
  <text x="148" y="148" font-family="'Segoe UI', sans-serif" font-size="12" fill="#CAD3F5">Next.js</text>

  <rect x="212" y="130" width="72" height="26" rx="6" fill="#363A4F" stroke="#8BD5CA" stroke-width="1" stroke-opacity="0.3"/>
  <circle cx="226" cy="143" r="4" fill="#8BD5CA"/>
  <text x="236" y="148" font-family="'Segoe UI', sans-serif" font-size="12" fill="#CAD3F5">React</text>

  <rect x="292" y="130" width="80" height="26" rx="6" fill="#363A4F" stroke="#ED8796" stroke-width="1" stroke-opacity="0.3"/>
  <circle cx="306" cy="143" r="4" fill="#ED8796"/>
  <text x="316" y="148" font-family="'Segoe UI', sans-serif" font-size="12" fill="#CAD3F5">Angular</text>

  <rect x="380" y="130" width="62" height="26" rx="6" fill="#363A4F" stroke="#EED49F" stroke-width="1" stroke-opacity="0.3"/>
  <circle cx="394" cy="143" r="4" fill="#EED49F"/>
  <text x="404" y="148" font-family="'Segoe UI', sans-serif" font-size="12" fill="#CAD3F5">Vite</text>

  <rect x="450" y="130" width="88" height="26" rx="6" fill="#363A4F" stroke="#F5A97F" stroke-width="1" stroke-opacity="0.3"/>
  <circle cx="464" cy="143" r="4" fill="#F5A97F"/>
  <text x="474" y="148" font-family="'Segoe UI', sans-serif" font-size="12" fill="#CAD3F5">HTML/CSS</text>

  <rect x="546" y="130" width="82" height="26" rx="6" fill="#363A4F" stroke="#8BD5CA" stroke-width="1" stroke-opacity="0.3"/>
  <circle cx="560" cy="143" r="4" fill="#8BD5CA"/>
  <text x="570" y="148" font-family="'Segoe UI', sans-serif" font-size="12" fill="#CAD3F5">Tailwind</text>

  <!-- ===== OTHERS ===== -->
  <rect x="20" y="180" width="4" height="20" fill="#C6A0F6" rx="2"/>
  <text x="32" y="195" font-family="'Courier New', monospace" font-size="16" font-weight="bold" fill="#C6A0F6">others</text>

  <rect x="20" y="210" width="100" height="26" rx="6" fill="#363A4F" stroke="#8AADF4" stroke-width="1" stroke-opacity="0.3"/>
  <circle cx="34" cy="223" r="4" fill="#8AADF4"/>
  <text x="44" y="228" font-family="'Segoe UI', sans-serif" font-size="12" fill="#CAD3F5">PostgreSQL</text>

  <rect x="128" y="210" width="88" height="26" rx="6" fill="#363A4F" stroke="#A6DA95" stroke-width="1" stroke-opacity="0.3"/>
  <circle cx="142" cy="223" r="4" fill="#A6DA95"/>
  <text x="152" y="228" font-family="'Segoe UI', sans-serif" font-size="12" fill="#CAD3F5">MongoDB</text>

  <rect x="224" y="210" width="72" height="26" rx="6" fill="#363A4F" stroke="#ED8796" stroke-width="1" stroke-opacity="0.3"/>
  <circle cx="238" cy="223" r="4" fill="#ED8796"/>
  <text x="248" y="228" font-family="'Segoe UI', sans-serif" font-size="12" fill="#CAD3F5">Redis</text>

  <rect x="304" y="210" width="90" height="26" rx="6" fill="#363A4F" stroke="#F5A97F" stroke-width="1" stroke-opacity="0.3"/>
  <circle cx="318" cy="223" r="4" fill="#F5A97F"/>
  <text x="328" y="228" font-family="'Segoe UI', sans-serif" font-size="12" fill="#CAD3F5">RabbitMQ</text>

  <rect x="402" y="210" width="100" height="26" rx="6" fill="#363A4F" stroke="#EED49F" stroke-width="1" stroke-opacity="0.3"/>
  <circle cx="416" cy="223" r="4" fill="#EED49F"/>
  <text x="426" y="228" font-family="'Segoe UI', sans-serif" font-size="12" fill="#CAD3F5">WebSockets</text>

  <rect x="20" y="244" width="70" height="26" rx="6" fill="#363A4F" stroke="#C6A0F6" stroke-width="1" stroke-opacity="0.3"/>
  <circle cx="34" cy="257" r="4" fill="#C6A0F6"/>
  <text x="44" y="262" font-family="'Segoe UI', sans-serif" font-size="12" fill="#CAD3F5">Linux</text>

  <rect x="98" y="244" width="56" height="26" rx="6" fill="#363A4F" stroke="#ED8796" stroke-width="1" stroke-opacity="0.3"/>
  <circle cx="112" cy="257" r="4" fill="#ED8796"/>
  <text x="122" y="262" font-family="'Segoe UI', sans-serif" font-size="12" fill="#CAD3F5">Git</text>

  <rect x="162" y="244" width="72" height="26" rx="6" fill="#363A4F" stroke="#A6DA95" stroke-width="1" stroke-opacity="0.3"/>
  <circle cx="176" cy="257" r="4" fill="#A6DA95"/>
  <text x="186" y="262" font-family="'Segoe UI', sans-serif" font-size="12" fill="#CAD3F5">CI/CD</text>

  <rect x="242" y="244" width="65" height="26" rx="6" fill="#363A4F" stroke="#F5A97F" stroke-width="1" stroke-opacity="0.3"/>
  <circle cx="256" cy="257" r="4" fill="#F5A97F"/>
  <text x="266" y="262" font-family="'Segoe UI', sans-serif" font-size="12" fill="#CAD3F5">AWS</text>

  <rect x="315" y="244" width="108" height="26" rx="6" fill="#363A4F" stroke="#8AADF4" stroke-width="1" stroke-opacity="0.3"/>
  <circle cx="329" cy="257" r="4" fill="#8AADF4"/>
  <text x="339" y="262" font-family="'Segoe UI', sans-serif" font-size="12" fill="#CAD3F5">DigitalOcean</text>

  <line x1="20" y1="295" x2="940" y2="295" stroke="url(#stackSection)" stroke-width="0.5" opacity="0.15"/>
</svg>
