<svg width="780" height="380" viewBox="0 0 780 380" xmlns="http://www.w3.org/2000/svg">
  <defs>
    <linearGradient id="stackSection" x1="0%" y1="0%" x2="100%" y2="0%">
      <stop offset="0%" stop-color="#C6A0F6"/>
      <stop offset="50%" stop-color="#8BD5CA"/>
      <stop offset="100%" stop-color="#F5A97F"/>
    </linearGradient>
  </defs>

  <rect width="780" height="380" fill="#24273A" rx="12"/>

  <!-- ===== BACKEND ===== -->
  <g>
    <!-- Category marker -->
    <rect x="20" y="20" width="4" height="20" fill="#8BD5CA" rx="2"/>
    <text x="32" y="35" font-family="'Courier New', monospace" font-size="16" font-weight="bold" fill="#8BD5CA">backend</text>

    <!-- Badges row 1 -->
    <g transform="translate(20, 50)">
      <!-- Python -->
      <rect x="0" y="0" width="82" height="26" rx="6" fill="#363A4F" stroke="#C6A0F6" stroke-width="1" stroke-opacity="0.3"/>
      <circle cx="14" cy="13" r="4" fill="#C6A0F6"/>
      <text x="24" y="18" font-family="'Segoe UI', sans-serif" font-size="12" fill="#CAD3F5">Python</text>

      <!-- Django -->
      <rect x="90" y="0" width="80" height="26" rx="6" fill="#363A4F" stroke="#A6DA95" stroke-width="1" stroke-opacity="0.3"/>
      <circle cx="14" cy="13" r="4" fill="#A6DA95"/>
      <text x="24" y="18" font-family="'Segoe UI', sans-serif" font-size="12" fill="#CAD3F5">Django</text>

      <!-- DRF -->
      <rect x="178" y="0" width="64" height="26" rx="6" fill="#363A4F" stroke="#ED8796" stroke-width="1" stroke-opacity="0.3"/>
      <circle cx="14" cy="13" r="4" fill="#ED8796"/>
      <text x="24" y="18" font-family="'Segoe UI', sans-serif" font-size="12" fill="#CAD3F5">DRF</text>

      <!-- FastAPI -->
      <rect x="250" y="0" width="82" height="26" rx="6" fill="#363A4F" stroke="#8BD5CA" stroke-width="1" stroke-opacity="0.3"/>
      <circle cx="14" cy="13" r="4" fill="#8BD5CA"/>
      <text x="24" y="18" font-family="'Segoe UI', sans-serif" font-size="12" fill="#CAD3F5">FastAPI</text>

      <!-- CrewAI -->
      <rect x="340" y="0" width="80" height="26" rx="6" fill="#363A4F" stroke="#F5A97F" stroke-width="1" stroke-opacity="0.3"/>
      <circle cx="14" cy="13" r="4" fill="#F5A97F"/>
      <text x="24" y="18" font-family="'Segoe UI', sans-serif" font-size="12" fill="#CAD3F5">CrewAI</text>

      <!-- NestJS -->
      <rect x="428" y="0" width="78" height="26" rx="6" fill="#363A4F" stroke="#EED49F" stroke-width="1" stroke-opacity="0.3"/>
      <circle cx="14" cy="13" r="4" fill="#EED49F"/>
      <text x="24" y="18" font-family="'Segoe UI', sans-serif" font-size="12" fill="#CAD3F5">NestJS</text>
    </g>

    <!-- Badges row 2 -->
    <g transform="translate(20, 84)">
      <!-- PostgreSQL -->
      <rect x="0" y="0" width="100" height="26" rx="6" fill="#363A4F" stroke="#8AADF4" stroke-width="1" stroke-opacity="0.3"/>
      <circle cx="14" cy="13" r="4" fill="#8AADF4"/>
      <text x="24" y="18" font-family="'Segoe UI', sans-serif" font-size="12" fill="#CAD3F5">PostgreSQL</text>

      <!-- MongoDB -->
      <rect x="108" y="0" width="88" height="26" rx="6" fill="#363A4F" stroke="#A6DA95" stroke-width="1" stroke-opacity="0.3"/>
      <circle cx="14" cy="13" r="4" fill="#A6DA95"/>
      <text x="24" y="18" font-family="'Segoe UI', sans-serif" font-size="12" fill="#CAD3F5">MongoDB</text>

      <!-- Redis -->
      <rect x="204" y="0" width="72" height="26" rx="6" fill="#363A4F" stroke="#ED8796" stroke-width="1" stroke-opacity="0.3"/>
      <circle cx="14" cy="13" r="4" fill="#ED8796"/>
      <text x="24" y="18" font-family="'Segoe UI', sans-serif" font-size="12" fill="#CAD3F5">Redis</text>

      <!-- SQLAlchemy -->
      <rect x="284" y="0" width="100" height="26" rx="6" fill="#363A4F" stroke="#B7BDF8" stroke-width="1" stroke-opacity="0.3"/>
      <circle cx="14" cy="13" r="4" fill="#B7BDF8"/>
      <text x="24" y="18" font-family="'Segoe UI', sans-serif" font-size="12" fill="#CAD3F5">SQLAlchemy</text>

      <!-- Pydantic -->
      <rect x="392" y="0" width="82" height="26" rx="6" fill="#363A4F" stroke="#F5A97F" stroke-width="1" stroke-opacity="0.3"/>
      <circle cx="14" cy="13" r="4" fill="#F5A97F"/>
      <text x="24" y="18" font-family="'Segoe UI', sans-serif" font-size="12" fill="#CAD3F5">Pydantic</text>
    </g>
  </g>

  <!-- ===== FRONTEND ===== -->
  <g transform="translate(0, 130)">
    <rect x="20" y="0" width="4" height="20" fill="#F5A97F" rx="2"/>
    <text x="32" y="15" font-family="'Courier New', monospace" font-size="16" font-weight="bold" fill="#F5A97F">frontend</text>

    <g transform="translate(20, 30)">
      <!-- TypeScript -->
      <rect x="0" y="0" width="96" height="26" rx="6" fill="#363A4F" stroke="#8AADF4" stroke-width="1" stroke-opacity="0.3"/>
      <circle cx="14" cy="13" r="4" fill="#8AADF4"/>
      <text x="24" y="18" font-family="'Segoe UI', sans-serif" font-size="12" fill="#CAD3F5">TypeScript</text>

      <!-- Next.js -->
      <rect x="104" y="0" width="80" height="26" rx="6" fill="#363A4F" stroke="#CAD3F5" stroke-width="1" stroke-opacity="0.3"/>
      <circle cx="14" cy="13" r="4" fill="#CAD3F5"/>
      <text x="24" y="18" font-family="'Segoe UI', sans-serif" font-size="12" fill="#24273A" font-weight="bold">Next.js</text>

      <!-- React -->
      <rect x="192" y="0" width="72" height="26" rx="6" fill="#363A4F" stroke="#8BD5CA" stroke-width="1" stroke-opacity="0.3"/>
      <circle cx="14" cy="13" r="4" fill="#8BD5CA"/>
      <text x="24" y="18" font-family="'Segoe UI', sans-serif" font-size="12" fill="#CAD3F5">React</text>

      <!-- Angular -->
      <rect x="272" y="0" width="80" height="26" rx="6" fill="#363A4F" stroke="#ED8796" stroke-width="1" stroke-opacity="0.3"/>
      <circle cx="14" cy="13" r="4" fill="#ED8796"/>
      <text x="24" y="18" font-family="'Segoe UI', sans-serif" font-size="12" fill="#CAD3F5">Angular</text>

      <!-- Vite -->
      <rect x="360" y="0" width="62" height="26" rx="6" fill="#363A4F" stroke="#EED49F" stroke-width="1" stroke-opacity="0.3"/>
      <circle cx="14" cy="13" r="4" fill="#EED49F"/>
      <text x="24" y="18" font-family="'Segoe UI', sans-serif" font-size="12" fill="#CAD3F5">Vite</text>

      <!-- HTML/CSS -->
      <rect x="430" y="0" width="88" height="26" rx="6" fill="#363A4F" stroke="#F5A97F" stroke-width="1" stroke-opacity="0.3"/>
      <circle cx="14" cy="13" r="4" fill="#F5A97F"/>
      <text x="24" y="18" font-family="'Segoe UI', sans-serif" font-size="12" fill="#CAD3F5">HTML/CSS</text>

      <!-- Tailwind -->
      <rect x="526" y="0" width="82" height="26" rx="6" fill="#363A4F" stroke="#8BD5CA" stroke-width="1" stroke-opacity="0.3"/>
      <circle cx="14" cy="13" r="4" fill="#8BD5CA"/>
      <text x="24" y="18" font-family="'Segoe UI', sans-serif" font-size="12" fill="#CAD3F5">Tailwind</text>
    </g>
  </g>

  <!-- ===== CLOUD & INFRA ===== -->
  <g transform="translate(0, 240)">
    <rect x="20" y="0" width="4" height="20" fill="#C6A0F6" rx="2"/>
    <text x="32" y="15" font-family="'Courier New', monospace" font-size="16" font-weight="bold" fill="#C6A0F6">cloud &amp; infra</text>

    <g transform="translate(20, 30)">
      <!-- AWS -->
      <rect x="0" y="0" width="65" height="26" rx="6" fill="#363A4F" stroke="#F5A97F" stroke-width="1" stroke-opacity="0.3"/>
      <circle cx="14" cy="13" r="4" fill="#F5A97F"/>
      <text x="24" y="18" font-family="'Segoe UI', sans-serif" font-size="12" fill="#CAD3F5">AWS</text>

      <!-- Digital Ocean -->
      <rect x="73" y="0" width="108" height="26" rx="6" fill="#363A4F" stroke="#8AADF4" stroke-width="1" stroke-opacity="0.3"/>
      <circle cx="14" cy="13" r="4" fill="#8AADF4"/>
      <text x="24" y="18" font-family="'Segoe UI', sans-serif" font-size="12" fill="#CAD3F5">DigitalOcean</text>

      <!-- Docker -->
      <rect x="189" y="0" width="78" height="26" rx="6" fill="#363A4F" stroke="#8BD5CA" stroke-width="1" stroke-opacity="0.3"/>
      <circle cx="14" cy="13" r="4" fill="#8BD5CA"/>
      <text x="24" y="18" font-family="'Segoe UI', sans-serif" font-size="12" fill="#CAD3F5">Docker</text>

      <!-- WebSockets -->
      <rect x="275" y="0" width="100" height="26" rx="6" fill="#363A4F" stroke="#EED49F" stroke-width="1" stroke-opacity="0.3"/>
      <circle cx="14" cy="13" r="4" fill="#EED49F"/>
      <text x="24" y="18" font-family="'Segoe UI', sans-serif" font-size="12" fill="#CAD3F5">WebSockets</text>

      <!-- Linux -->
      <rect x="383" y="0" width="70" height="26" rx="6" fill="#363A4F" stroke="#C6A0F6" stroke-width="1" stroke-opacity="0.3"/>
      <circle cx="14" cy="13" r="4" fill="#C6A0F6"/>
      <text x="24" y="18" font-family="'Segoe UI', sans-serif" font-size="12" fill="#CAD3F5">Linux</text>

      <!-- Git -->
      <rect x="461" y="0" width="56" height="26" rx="6" fill="#363A4F" stroke="#ED8796" stroke-width="1" stroke-opacity="0.3"/>
      <circle cx="14" cy="13" r="4" fill="#ED8796"/>
      <text x="24" y="18" font-family="'Segoe UI', sans-serif" font-size="12" fill="#CAD3F5">Git</text>

      <!-- CI/CD -->
      <rect x="525" y="0" width="72" height="26" rx="6" fill="#363A4F" stroke="#A6DA95" stroke-width="1" stroke-opacity="0.3"/>
      <circle cx="14" cy="13" r="4" fill="#A6DA95"/>
      <text x="24" y="18" font-family="'Segoe UI', sans-serif" font-size="12" fill="#CAD3F5">CI/CD</text>
    </g>
  </g>

  <!-- Bottom decoration -->
  <line x1="20" y1="370" x2="760" y2="370" stroke="url(#stackSection)" stroke-width="0.5" opacity="0.15"/>
</svg>
